<?xml version="1.0" standalone="no"?>
<!DOCTYPE svg PUBLIC "-//W3C//DTD SVG 20010904//EN"
 "http://www.w3.org/TR/2001/REC-SVG-20010904/DTD/svg10.dtd">
<svg version="1.0" xmlns="http://www.w3.org/2000/svg"
 width="513.000000pt" height="513.000000pt" viewBox="0 0 513.000000 513.000000"
 preserveAspectRatio="xMidYMid meet">
<metadata>
Created by potrace 1.14, written by Peter Selinger 2001-2017
</metadata>
<g transform="translate(0.000000,513.000000) scale(0.100000,-0.100000)"
fill="#000000" stroke="none">
<path d="M1225 4468 c-102 -11 -217 -43 -303 -84 -41 -20 -80 -40 -86 -45
-124 -98 -180 -162 -235 -269 -40 -77 -85 -211 -96 -290 -4 -25 -9 -58 -12
-75 -3 -16 -6 -146 -7 -287 -2 -226 0 -258 14 -259 93 -3 531 0 539 5 6 4 10
95 10 244 0 130 3 251 6 267 32 168 130 256 286 257 41 1 86 -1 100 -5 71 -15
147 -75 171 -136 36 -91 47 -165 44 -315 -7 -333 -106 -586 -347 -882 -68 -84
-200 -235 -244 -279 -41 -42 -163 -182 -226 -260 -135 -167 -228 -329 -283
-495 -59 -178 -68 -257 -70 -593 -1 -164 2 -301 7 -304 6 -4 985 -6 1552 -4
l160 1 -2 257 c-1 142 -2 264 -2 271 -1 9 -120 12 -560 12 -524 0 -559 1 -563
17 -16 65 13 215 62 314 27 55 96 169 109 179 3 3 19 23 36 44 43 59 276 324
366 418 15 15 42 47 60 70 19 24 42 52 52 63 37 39 135 172 194 261 106 162
212 392 243 530 7 27 14 58 16 69 32 129 48 426 30 549 -57 401 -245 636 -579
726 -123 32 -297 44 -442 28z"/>
<path d="M2539 4429 c-5 -3 34 -133 87 -290 53 -156 177 -522 276 -814 98
-291 194 -574 212 -627 l33 -98 -22 -67 c-44 -131 -186 -548 -192 -563 -3 -8
-7 -19 -9 -25 -2 -9 -132 -383 -147 -425 -3 -8 -44 -127 -90 -265 -46 -137
-110 -326 -142 -418 -32 -92 -55 -170 -52 -173 9 -9 537 -8 546 2 5 5 18 36
29 69 176 542 316 966 325 990 7 17 12 32 12 35 1 3 27 86 59 185 54 167 76
220 76 185 0 -7 63 -205 139 -439 77 -234 184 -562 238 -729 l98 -302 240 -1
c132 0 271 -1 308 -1 37 0 70 2 73 4 2 3 -21 79 -52 169 -30 90 -66 196 -79
234 -13 39 -71 210 -130 380 -58 171 -119 348 -135 395 -16 47 -80 237 -144
422 l-115 338 170 502 c94 277 224 663 290 858 67 195 129 380 139 410 10 30
17 56 15 58 -9 9 -529 6 -541 -3 -9 -8 -79 -200 -98 -270 -2 -5 -6 -17 -9 -25
-6 -16 -347 -1059 -351 -1074 -3 -14 -18 27 -101 289 -71 222 -96 299 -203
630 -21 66 -63 195 -92 288 -46 144 -56 167 -74 168 -117 4 -580 3 -587 -2z"/>
</g>
</svg>
